<?xml version="1.0" standalone="no"?>
<!DOCTYPE svg PUBLIC "-//W3C//DTD SVG 20010904//EN"
 "http://www.w3.org/TR/2001/REC-SVG-20010904/DTD/svg10.dtd">
<svg version="1.0" xmlns="http://www.w3.org/2000/svg"
 width="677.000000pt" height="677.000000pt" viewBox="0 0 677.000000 677.000000"
 preserveAspectRatio="xMidYMid meet">

<g transform="translate(0.000000,677.000000) scale(0.100000,-0.100000)"
fill="#000000" stroke="none">
<path d="M3160 6723 c-210 -20 -268 -27 -364 -43 -530 -93 -1029 -313 -1458
-642 -440 -337 -817 -817 -1027 -1310 -66 -154 -69 -166 -39 -162 13 2 79 10
148 19 597 78 1290 311 1910 640 388 207 755 455 1110 750 148 123 581 545
648 631 l31 41 -112 21 c-146 27 -235 39 -382 52 -111 9 -384 11 -465 3z"/>
<path d="M6259 6563 c5 -10 120 -254 256 -543 136 -289 248 -527 251 -529 2
-2 4 242 4 542 l0 547 -260 0 c-245 0 -260 -1 -251 -17z"/>
<path d="M4807 6378 c-8 -13 -51 -81 -95 -153 -332 -538 -802 -1072 -1332
-1510 -604 -500 -1353 -918 -2085 -1163 -371 -125 -775 -214 -1090 -242 -198
-18 -178 -6 -171 -108 18 -229 38 -376 77 -550 l21 -92 46 5 c26 3 135 12 242
20 291 23 696 70 1045 120 1363 196 2658 539 4179 1106 304 114 958 369 969
378 10 10 -54 228 -116 391 -61 161 -197 435 -287 578 -74 119 -201 290 -300
407 -94 111 -325 334 -445 430 -141 113 -378 269 -522 343 l-122 63 -14 -23z"/>
<path d="M6425 2596 c-1905 -745 -3623 -1161 -5445 -1322 -102 -9 -186 -17
-187 -18 -1 0 49 -57 110 -124 780 -859 1958 -1250 3105 -1031 520 99 1040
340 1457 674 123 98 341 309 445 430 337 392 583 869 710 1374 12 46 20 87 18
91 -2 4 -97 -29 -213 -74z"/>
</g>
</svg>
